# xmcd
#
# Track frame offsets:
# 150
# 12577
# 24212
# 32730
# 43862
# 52752
# 62117
# 81915
# 93437
# 114187
# 124162
# 135642
# 150162
# 160807
# 167630
# 175685
#
# Disc length: 2453 seconds
#
#
# Revision: 2
# Processed by: cddbd v1.5.1PL2 Copyright (c) Steve Scherf et al.
# Submitted via: FreeRIP 2.91 
#
DISCID=bb099310
DTITLE=Fats Domino - Greatest Hits, Live
DYEAR=1993
DGENRE=Blues
TTITLE0=I'm Walkin
TTITLE1=Blueberry Hill
TTITLE2=I'm Ready
TTITLE3=Going to the River
TTITLE4=My girl Josephine
TTITLE5=I want to walk you home
TTITLE6=Let the four winds blow
TTITLE7=Ain't that a shame
TTITLE8=Jambolaya
TTITLE9=I'm gonna be a wheel one day
TTITLE10=Blue Monday
TTITLE11=I'm in love again
TTITLE12=Walking to New Orleans
TTITLE13=Whole lotta loving
TTITLE14=My Toot Toot
TTITLE15=When the Saints go Marching in
EXTD=YEAR: 1993 ID3G: 0
EXTT0=
EXTT1=
EXTT2=
EXTT3=
EXTT4=
EXTT5=
EXTT6=
EXTT7=
EXTT8=
EXTT9=
EXTT10=
EXTT11=
EXTT12=
EXTT13=
EXTT14=
EXTT15=
PLAYORDER=
